<?xml version="1.0" encoding="UTF-8" standalone="no"?>
<!-- Created with Inkscape (http://www.inkscape.org/) -->

<svg
   xmlns:dc="http://purl.org/dc/elements/1.1/"
   xmlns:cc="http://creativecommons.org/ns#"
   xmlns:rdf="http://www.w3.org/1999/02/22-rdf-syntax-ns#"
   xmlns:svg="http://www.w3.org/2000/svg"
   xmlns="http://www.w3.org/2000/svg"
   xmlns:sodipodi="http://sodipodi.sourceforge.net/DTD/sodipodi-0.dtd"
   xmlns:inkscape="http://www.inkscape.org/namespaces/inkscape"
   width="209.57097mm"
   height="10.644444mm"
   viewBox="0 0 742.5743 37.716535"
   id="svg4274"
   version="1.1"
   inkscape:version="0.91 r13725"
   sodipodi:docname="header_informatica3.svg">
  <defs
     id="defs4276" />
  <sodipodi:namedview
     id="base"
     pagecolor="#ffffff"
     bordercolor="#666666"
     borderopacity="1.0"
     inkscape:pageopacity="0.0"
     inkscape:pageshadow="2"
     inkscape:zoom="2.3571656"
     inkscape:cx="160.5049"
     inkscape:cy="3.3253328"
     inkscape:document-units="px"
     inkscape:current-layer="layer1"
     showgrid="false"
     fit-margin-bottom="5"
     fit-margin-top="0"
     fit-margin-left="0"
     fit-margin-right="0"
     inkscape:window-width="1366"
     inkscape:window-height="704"
     inkscape:window-x="0"
     inkscape:window-y="27"
     inkscape:window-maximized="1" />
  <metadata
     id="metadata4279">
    <rdf:RDF>
      <cc:Work
         rdf:about="">
        <dc:format>image/svg+xml</dc:format>
        <dc:type
           rdf:resource="http://purl.org/dc/dcmitype/StillImage" />
        <dc:title></dc:title>
      </cc:Work>
    </rdf:RDF>
  </metadata>
  <g
     inkscape:label="Capa 1"
     inkscape:groupmode="layer"
     id="layer1"
     transform="translate(-1.1414116,0)">
    <text
       xml:space="preserve"
       style="font-style:normal;font-weight:normal;font-size:40px;line-height:125%;font-family:sans-serif;letter-spacing:0px;word-spacing:0px;fill:#1a1a1a;fill-opacity:1;stroke:none;stroke-width:1px;stroke-linecap:butt;stroke-linejoin:miter;stroke-opacity:1"
       x="0.30891368"
       y="13.00018"
       id="text4136"
       sodipodi:linespacing="125%"
       transform="scale(0.9999982,1.0000018)"><tspan
         sodipodi:role="line"
         id="tspan4138"
         x="0.30891368"
         y="13.00018"
         style="font-style:normal;font-variant:normal;font-weight:bold;font-stretch:normal;font-size:11.25px;font-family:'PT Sans';-inkscape-font-specification:'PT Sans Bold';fill:#1a1a1a">Informática III</tspan></text>
    <text
       xml:space="preserve"
       style="font-style:normal;font-weight:normal;font-size:40px;line-height:125%;font-family:sans-serif;letter-spacing:0px;word-spacing:0px;fill:#1a1a1a;fill-opacity:1;stroke:none;stroke-width:1px;stroke-linecap:butt;stroke-linejoin:miter;stroke-opacity:1"
       x="506.17853"
       y="12.79"
       id="text4150"
       sodipodi:linespacing="125%"><tspan
         sodipodi:role="line"
         id="tspan4152"
         x="506.17853"
         y="12.79"
         style="font-style:normal;font-variant:normal;font-weight:normal;font-stretch:normal;font-size:11.25px;font-family:'PT Sans';-inkscape-font-specification:'PT Sans';fill:#1a1a1a">profesor@rauljesus.xyz</tspan></text>
    <text
       sodipodi:linespacing="125%"
       id="text4154"
       y="12.79"
       x="656.20355"
       style="font-style:normal;font-weight:normal;font-size:40px;line-height:125%;font-family:sans-serif;letter-spacing:0px;word-spacing:0px;fill:#1a1a1a;fill-opacity:1;stroke:none;stroke-width:1px;stroke-linecap:butt;stroke-linejoin:miter;stroke-opacity:1"
       xml:space="preserve"><tspan
         style="font-style:normal;font-variant:normal;font-weight:normal;font-stretch:normal;font-size:11.25px;font-family:'PT Sans';-inkscape-font-specification:'PT Sans';fill:#1a1a1a"
         y="12.79"
         x="656.20355"
         id="tspan4156"
         sodipodi:role="line">www.rauljesus.xyz</tspan></text>
    <g
       id="g4278"
       transform="matrix(0.06013428,0,0,0.06013428,482.08274,-0.0224699)"
       style="fill:#1a1a1a">
      <g
         id="g4238"
         style="fill:#1a1a1a">
        <path
           id="path4240"
           d="m 294.034,45.785 -255.473,0 C 17.295,45.785 0,63.079 0,84.346 l 0,7.082 0,149.732 0,7.082 c 0,21.266 17.295,38.561 38.561,38.561 l 255.467,0 c 21.266,0 38.561,-17.295 38.561,-38.561 l 0,-7.082 0,-149.745 0,-7.076 c 0.006,-21.26 -17.295,-38.554 -38.555,-38.554 z m 0,12.853 c 1.767,0 3.49,0.18 5.161,0.527 0.54,0.109 1.028,0.334 1.555,0.476 1.105,0.302 2.224,0.578 3.265,1.015 0.566,0.238 1.054,0.591 1.607,0.868 0.932,0.476 1.896,0.919 2.764,1.497 0.501,0.347 0.932,0.784 1.408,1.17 0.816,0.636 1.658,1.234 2.397,1.973 0.424,0.418 0.752,0.932 1.144,1.388 0.688,0.784 1.407,1.542 1.999,2.41 0.353,0.514 0.591,1.105 0.906,1.645 0.514,0.893 1.067,1.755 1.472,2.712 0.263,0.611 0.392,1.279 0.604,1.922 0.328,0.951 0.688,1.889 0.906,2.886 0.148,0.713 0.148,1.478 0.238,2.217 0.116,0.958 0.276,1.896 0.289,2.886 l -121.917,74.526 -0.013,0 -31.53,19.287 -31.53,-19.287 -0.006,0 L 12.867,84.224 c 0.006,-0.938 0.18,-1.838 0.276,-2.757 0.096,-0.784 0.096,-1.587 0.251,-2.346 0.18,-0.893 0.521,-1.716 0.797,-2.564 0.238,-0.746 0.405,-1.53 0.707,-2.249 0.341,-0.803 0.823,-1.517 1.234,-2.275 0.386,-0.688 0.694,-1.427 1.138,-2.076 0.482,-0.707 1.086,-1.324 1.639,-1.979 0.501,-0.611 0.945,-1.26 1.504,-1.819 0.598,-0.598 1.298,-1.073 1.954,-1.613 0.623,-0.501 1.189,-1.073 1.851,-1.517 0.707,-0.482 1.504,-0.823 2.269,-1.228 0.694,-0.379 1.356,-0.823 2.095,-1.138 0.945,-0.405 1.973,-0.643 2.969,-0.925 0.623,-0.18 1.208,-0.443 1.845,-0.572 1.671,-0.347 3.393,-0.527 5.167,-0.527 -0.002,-0.001 255.471,-0.001 255.471,-0.001 z m -281.18,40.65 109.584,67 -109.584,67.006 0,-134.006 z m 25.707,174.656 c -1.767,0 -3.496,-0.18 -5.167,-0.521 -0.784,-0.161 -1.504,-0.469 -2.269,-0.701 -0.855,-0.257 -1.735,-0.45 -2.545,-0.79 -0.977,-0.411 -1.864,-0.977 -2.783,-1.504 -0.514,-0.302 -1.08,-0.527 -1.575,-0.861 -0.887,-0.598 -1.665,-1.324 -2.468,-2.024 -0.437,-0.379 -0.932,-0.694 -1.337,-1.105 -0.726,-0.72 -1.324,-1.555 -1.96,-2.359 -0.386,-0.482 -0.835,-0.919 -1.189,-1.433 -0.521,-0.765 -0.9,-1.626 -1.337,-2.442 -0.341,-0.649 -0.752,-1.24 -1.041,-1.922 -0.328,-0.765 -0.501,-1.594 -0.752,-2.397 -0.257,-0.803 -0.578,-1.581 -0.752,-2.416 -0.154,-0.765 -0.161,-1.581 -0.251,-2.365 -0.09,-0.925 -0.263,-1.812 -0.27,-2.751 l 121.891,-74.532 31.53,19.281 31.53,-19.281 121.911,74.532 c -0.013,0.938 -0.174,1.825 -0.276,2.744 -0.09,0.784 -0.103,1.6 -0.251,2.365 -0.174,0.835 -0.501,1.613 -0.752,2.416 -0.251,0.803 -0.424,1.632 -0.752,2.397 -0.289,0.675 -0.701,1.273 -1.041,1.922 -0.437,0.816 -0.816,1.677 -1.343,2.442 -0.353,0.514 -0.803,0.945 -1.183,1.433 -0.643,0.803 -1.228,1.639 -1.96,2.359 -0.411,0.405 -0.906,0.726 -1.343,1.105 -0.803,0.701 -1.581,1.433 -2.461,2.024 -0.501,0.334 -1.067,0.559 -1.581,0.861 -0.919,0.527 -1.793,1.093 -2.776,1.504 -0.816,0.341 -1.697,0.533 -2.545,0.791 -0.765,0.231 -1.478,0.54 -2.275,0.701 -1.671,0.341 -3.387,0.521 -5.161,0.521 l -255.466,0 0,0.006 z m 281.18,-40.65 -109.597,-67.006 109.597,-67.006 0,134.012 z"
           inkscape:connector-curvature="0"
           style="fill:#1a1a1a" />
      </g>
      <g
         id="g4242"
         style="fill:#1a1a1a" />
      <g
         id="g4244"
         style="fill:#1a1a1a" />
      <g
         id="g4246"
         style="fill:#1a1a1a" />
      <g
         id="g4248"
         style="fill:#1a1a1a" />
      <g
         id="g4250"
         style="fill:#1a1a1a" />
      <g
         id="g4252"
         style="fill:#1a1a1a" />
      <g
         id="g4254"
         style="fill:#1a1a1a" />
      <g
         id="g4256"
         style="fill:#1a1a1a" />
      <g
         id="g4258"
         style="fill:#1a1a1a" />
      <g
         id="g4260"
         style="fill:#1a1a1a" />
      <g
         id="g4262"
         style="fill:#1a1a1a" />
      <g
         id="g4264"
         style="fill:#1a1a1a" />
      <g
         id="g4266"
         style="fill:#1a1a1a" />
      <g
         id="g4268"
         style="fill:#1a1a1a" />
      <g
         id="g4270"
         style="fill:#1a1a1a" />
    </g>
    <g
       id="g4421"
       transform="matrix(0.0390625,0,0,0.0390625,631.67205,0)"
       style="fill:#1a1a1a">
      <g
         id="g4379"
         style="fill:#1a1a1a">
        <g
           id="g4381"
           style="fill:#1a1a1a">
          <path
             id="path4383"
             d="M 256,0 C 114.62,0 0,114.62 0,256 0,397.38 114.62,512 256,512 397.38,512 512,397.38 512,256 512,114.62 397.38,0 256,0 Z M 202.436,32.137 C 181.632,55.083 163.934,80.862 150.016,108.894 133.06,102.596 117.018,94.515 101.589,85.496 129.792,59.938 164.233,41.284 202.436,32.137 Z M 82.927,104.414 c 17.877,10.897 36.599,20.531 56.465,27.981 -13.875,34.458 -22.033,71.731 -23.526,110.805 l -89.617,0 C 29.184,190.174 50.005,141.952 82.927,104.414 Z M 26.249,268.8 l 89.617,0 c 1.493,39.074 9.651,76.348 23.526,110.805 -19.866,7.45 -38.596,17.084 -56.465,27.981 C 50.005,370.048 29.184,321.826 26.249,268.8 Z m 75.34,157.705 c 15.42,-9.028 31.462,-17.101 48.427,-23.398 13.918,28.032 31.616,53.811 52.42,76.757 -38.203,-9.148 -72.653,-27.794 -100.847,-53.359 z M 243.2,483.814 c -27.904,-25.079 -51.422,-54.903 -68.702,-88.559 22.016,-6.118 45.005,-9.788 68.702,-10.778 l 0,99.337 z m 0,-124.936 c -27.409,1.05 -53.965,5.342 -79.283,12.646 C 150.818,339.593 143.07,305.05 141.56,268.8 l 101.64,0 0,90.078 z m 0,-115.678 -101.64,0 c 1.51,-36.25 9.259,-70.793 22.357,-102.724 25.318,7.296 51.874,11.597 79.283,12.638 l 0,90.086 z m 0,-115.669 c -23.697,-0.998 -46.686,-4.668 -68.702,-10.786 17.28,-33.647 40.798,-63.471 68.702,-88.55 l 0,99.336 z m 242.552,115.669 -89.617,0 c -1.493,-39.074 -9.651,-76.348 -23.526,-110.805 19.866,-7.45 38.588,-17.084 56.465,-27.981 32.929,37.547 53.742,85.768 56.678,138.786 z M 410.419,85.495 c -15.428,9.028 -31.471,17.101 -48.435,23.398 -13.918,-28.032 -31.616,-53.811 -52.42,-76.757 38.203,9.148 72.653,27.794 100.855,53.359 z M 268.8,28.194 c 27.904,25.079 51.422,54.903 68.702,88.559 -22.016,6.11 -45.005,9.779 -68.702,10.769 l 0,-99.328 z m 0,215.006 0,-90.078 c 27.409,-1.041 53.965,-5.342 79.283,-12.638 13.099,31.932 20.847,66.475 22.357,102.724 l -101.64,0 0,-0.008 z m 0,25.6 101.641,0 c -1.51,36.25 -9.259,70.793 -22.357,102.724 -25.318,-7.305 -51.874,-11.597 -79.283,-12.646 l 0,-90.078 z m 0,215.014 0,-99.336 c 23.697,0.99 46.686,4.659 68.702,10.778 -17.28,33.655 -40.798,63.47 -68.702,88.558 z m 40.764,-3.951 c 20.804,-22.946 38.502,-48.725 52.42,-76.757 16.956,6.298 32.998,14.379 48.427,23.398 -28.194,25.558 -62.644,44.212 -100.847,53.359 z m 119.509,-72.277 c -17.877,-10.897 -36.599,-20.531 -56.465,-27.981 13.875,-34.458 22.033,-71.731 23.526,-110.805 l 89.617,0 c -2.935,53.026 -23.756,101.248 -56.678,138.786 z"
             inkscape:connector-curvature="0"
             style="fill:#1a1a1a" />
        </g>
      </g>
      <g
         id="g4385"
         style="fill:#1a1a1a" />
      <g
         id="g4387"
         style="fill:#1a1a1a" />
      <g
         id="g4389"
         style="fill:#1a1a1a" />
      <g
         id="g4391"
         style="fill:#1a1a1a" />
      <g
         id="g4393"
         style="fill:#1a1a1a" />
      <g
         id="g4395"
         style="fill:#1a1a1a" />
      <g
         id="g4397"
         style="fill:#1a1a1a" />
      <g
         id="g4399"
         style="fill:#1a1a1a" />
      <g
         id="g4401"
         style="fill:#1a1a1a" />
      <g
         id="g4403"
         style="fill:#1a1a1a" />
      <g
         id="g4405"
         style="fill:#1a1a1a" />
      <g
         id="g4407"
         style="fill:#1a1a1a" />
      <g
         id="g4409"
         style="fill:#1a1a1a" />
      <g
         id="g4411"
         style="fill:#1a1a1a" />
      <g
         id="g4413"
         style="fill:#1a1a1a" />
    </g>
  </g>
</svg>
